<svg xmlns="http://www.w3.org/2000/svg" xmlns:xlink="http://www.w3.org/1999/xlink" viewBox="0 0 1024 1024"><defs><style>.cls-1{fill:#f0f0f0;}.cls-2{fill:#0069b3;}.cls-3{fill:#fff;}.cls-4{fill:url(#Unbenannter_Verlauf_79);}.cls-5{fill:url(#Unbenannter_Verlauf_79-2);}.cls-6{fill:url(#Unbenannter_Verlauf_79-3);}.cls-7{fill:#80b5d6;}.cls-8{fill:url(#Unbenannter_Verlauf_79-4);}</style><radialGradient id="Unbenannter_Verlauf_79" cx="649.82" cy="595.33" r="85.08" gradientUnits="userSpaceOnUse"><stop offset="0" stop-color="#80b5d6"/><stop offset="0.12" stop-color="#80b5d6" stop-opacity="0.95"/><stop offset="0.32" stop-color="#80b5d6" stop-opacity="0.82"/><stop offset="0.58" stop-color="#80b5d6" stop-opacity="0.6"/><stop offset="0.89" stop-color="#80b5d6" stop-opacity="0.31"/><stop offset="1" stop-color="#80b5d6" stop-opacity="0.2"/></radialGradient><radialGradient id="Unbenannter_Verlauf_79-2" cx="491.02" cy="808.53" r="85.08" xlink:href="#Unbenannter_Verlauf_79"/><radialGradient id="Unbenannter_Verlauf_79-3" cx="567.99" cy="701.93" r="85.08" xlink:href="#Unbenannter_Verlauf_79"/><radialGradient id="Unbenannter_Verlauf_79-4" cx="223.26" cy="13.37" r="1276.76" xlink:href="#Unbenannter_Verlauf_79"/></defs><g id="Ebene_1" data-name="Ebene 1"><path class="cls-1" d="M698.48,625.46H676.43a2.68,2.68,0,0,1-2.68-2.68v-3.49a2.68,2.68,0,0,1,2.68-2.68h21.91l-22.07-22.08L649.7,621.1l26.57,26.57Z"/><rect class="cls-1" x="815.39" y="708.92" width="37.57" height="37.57" transform="translate(-270.24 803) rotate(-45)"/><rect class="cls-1" x="815.39" y="602.32" width="37.57" height="37.57" transform="translate(-194.86 771.77) rotate(-45)"/><path class="cls-1" d="M616.64,732.06H595.92a2.68,2.68,0,0,1-2.68-2.68v-3.49a2.68,2.68,0,0,1,2.68-2.68h20.59l-22.07-22.07L567.87,727.7l26.57,26.57Z"/><rect class="cls-1" x="815.39" y="815.52" width="37.57" height="37.57" transform="translate(-345.62 834.22) rotate(-45)"/><path class="cls-1" d="M363.21,138.84v48.27H594.53V451.62H363.21V948.8h24.3v8.85h-24.3V1024H989.09V325.11l0-186.27Zm280,476.25,27-27.06a8.51,8.51,0,0,1,12,0l27.05,27.06a8.18,8.18,0,0,1,1.2,1.52h46.69l-4.09-13.87a4.76,4.76,0,0,1,6.61-5.66l40.39,19.2a8.49,8.49,0,0,1,1-1.19L828.17,588a8.5,8.5,0,0,1,12,0l27.06,27.06a8.5,8.5,0,0,1,0,12l-27.06,27.06a8.5,8.5,0,0,1-12,0l-27.06-27.06a8,8,0,0,1-1.05-1.29L759.74,645a4.76,4.76,0,0,1-6.61-5.65l4.09-13.88H710.61a8,8,0,0,1-1.28,1.65l-27.05,27.06a8.51,8.51,0,0,1-12,0l-27-27.06A8.5,8.5,0,0,1,643.2,615.09Zm-81.83,106.6,27-27.05a8.51,8.51,0,0,1,12,0l27,27.05a8.18,8.18,0,0,1,1.2,1.52H757.22l-4.09-13.87a4.76,4.76,0,0,1,6.61-5.65l40.39,19.19a9.1,9.1,0,0,1,1-1.19l27.06-27.05a8.5,8.5,0,0,1,12,0l27.06,27.05a8.5,8.5,0,0,1,0,12l-27.06,27.06a8.5,8.5,0,0,1-12,0l-27.06-27.06a8.4,8.4,0,0,1-1.05-1.28L759.74,751.6a4.76,4.76,0,0,1-6.61-5.66l4.09-13.88H628.78a8,8,0,0,1-1.28,1.65l-27,27.06a8.51,8.51,0,0,1-12,0l-27-27.06A8.5,8.5,0,0,1,561.37,721.69Zm-129.62,236H405.21V948.8h26.54Zm44.23,0H449.44V948.8H476Zm44.23,0H493.67V948.8h26.54Zm44.24,0H537.91V948.8h26.54Zm44.23,0H582.14V948.8h26.54Zm44.23,0H626.37V948.8h26.54Zm44.24,0H670.61V948.8h26.54Zm44.23,0H714.84V948.8h26.54Zm44.23,0H759.07V948.8h26.54Zm44.24,0H803.31V948.8h26.54Zm4.33-87.79a8.46,8.46,0,0,1-6-2.49l-27.06-27a8.47,8.47,0,0,1-1.05-1.29L759.74,858.2a4.76,4.76,0,0,1-6.61-5.65l4.09-13.89H551.81a8.71,8.71,0,0,1-1.27,1.66l-27.06,27a8.5,8.5,0,0,1-12,0l-27.06-27a8.51,8.51,0,0,1,0-12l27.06-27a8.5,8.5,0,0,1,12,0l27.06,27a9.18,9.18,0,0,1,1.2,1.53H757.22l-4.09-13.88a4.76,4.76,0,0,1,6.61-5.65l40.39,19.2a9.18,9.18,0,0,1,1-1.2l27.06-27a8.5,8.5,0,0,1,12,0l27.06,27a8.51,8.51,0,0,1,0,12l-27.06,27A8.46,8.46,0,0,1,834.18,869.86Zm39.9,87.79H847.54V948.8h26.54Zm48.66,0h-31V948.8h22.12V939h8.85Zm0-36.37h-8.85V894.74h8.85Zm0-44.23h-8.85V850.51h8.85Zm0-44.23h-8.85V806.28h8.85Zm0-44.24h-8.85V762h8.85Zm0-44.23h-8.85V717.81h8.85Zm0-44.23h-8.85V673.58h8.85Zm0-44.24h-8.85V629.34h8.85Zm0-44.23h-8.85V585.11h8.85Zm0-44.23h-8.85V540.88h8.85Zm0-44.24h-8.85V496.64h8.85Zm0-44.23h-8.85V452.41h8.85Zm0-44.23h-8.85V408.18h8.85Zm0-44.24h-8.85V363.94h8.85Zm0-44.23h-8.85V319.71h8.85Zm0-44.23h-8.85V275.48h8.85Zm0-44.24h-8.85V231.24h8.85Zm0-44.23H913.9V187h8.84Zm0-44.23h-8.85V142.78h8.84Z"/><path class="cls-1" d="M516.28,836v-3.49a2.68,2.68,0,0,1,2.68-2.67h20.59l-22.08-22.08L490.9,834.31l26.57,26.56,22.21-22.21H519A2.68,2.68,0,0,1,516.28,836Z"/><rect class="cls-2" x="34.13" y="187.11" width="560.4" height="264.51"/><path class="cls-3" d="M130.24,387.58A77.1,77.1,0,0,1,101,359Q90.27,340.64,90.26,317.5q0-22.9,10.78-41.21a77.19,77.19,0,0,1,29.2-28.64,81.22,81.22,0,0,1,40.43-10.33,81.05,81.05,0,0,1,40.55,10.33,76.59,76.59,0,0,1,29,28.64q10.67,18.3,10.67,41.21,0,23.14-10.67,41.45a76.29,76.29,0,0,1-29.08,28.63,84.23,84.23,0,0,1-80.87,0Zm65.37-24.14a43.9,43.9,0,0,0,16.84-18.31q6.08-11.89,6.07-27.63T212.45,290a43.29,43.29,0,0,0-16.84-18.08q-10.79-6.29-24.94-6.29a49.2,49.2,0,0,0-25,6.29,43.12,43.12,0,0,0-17,18.08q-6.06,11.79-6.06,27.51t6.06,27.63a43.72,43.72,0,0,0,17,18.31,48.47,48.47,0,0,0,25,6.4Q184.83,369.84,195.61,363.44Z"/><path class="cls-3" d="M411.41,239.56l-57.5,156.78H315.73l-57.5-156.78h33.69L335,364.22,378,239.56Z"/><path class="cls-3" d="M530.55,239.56v25.38H465.18v40.21h50.09v24.93H465.18v66.26H433.74V239.56Z"/><path class="cls-4" d="M676.43,616.61h21.91l-22.07-22.08L649.7,621.1l26.57,26.57,22.21-22.21H676.43a2.68,2.68,0,0,1-2.68-2.68v-3.49A2.68,2.68,0,0,1,676.43,616.61Z"/><path class="cls-5" d="M519,829.82h20.59l-22.08-22.08L490.9,834.31l26.57,26.56,22.21-22.21H519a2.68,2.68,0,0,1-2.68-2.68v-3.49A2.68,2.68,0,0,1,519,829.82Z"/><path class="cls-6" d="M595.92,723.21h20.59l-22.07-22.07L567.87,727.7l26.57,26.57,22.2-22.21H595.92a2.68,2.68,0,0,1-2.68-2.68v-3.49A2.68,2.68,0,0,1,595.92,723.21Z"/><rect class="cls-7" x="288.02" y="181.33" width="8.85" height="5.78"/><rect class="cls-7" x="316.74" y="948.8" width="26.54" height="8.85"/><rect class="cls-7" x="360.97" y="948.8" width="26.54" height="8.85"/><polygon class="cls-7" points="296.86 933.29 288.02 933.29 288.02 957.65 299.05 957.65 299.05 948.8 296.86 948.8 296.86 933.29"/><rect class="cls-7" x="288.02" y="137.09" width="8.85" height="26.54"/><polygon class="cls-7" points="296.86 72.49 311.88 72.49 311.88 63.64 288.02 63.64 288.02 75.17 296.86 75.17 296.86 72.49"/><rect class="cls-7" x="288.02" y="92.86" width="8.85" height="26.54"/><rect class="cls-7" x="626.37" y="948.8" width="26.54" height="8.85"/><rect class="cls-7" x="594.97" y="63.64" width="26.54" height="8.85"/><rect class="cls-7" x="405.21" y="948.8" width="26.54" height="8.85"/><rect class="cls-7" x="582.14" y="948.8" width="26.54" height="8.85"/><rect class="cls-7" x="329.57" y="63.64" width="26.54" height="8.85"/><rect class="cls-7" x="449.44" y="948.8" width="26.54" height="8.85"/><rect class="cls-7" x="639.2" y="63.64" width="26.54" height="8.85"/><rect class="cls-7" x="493.67" y="948.8" width="26.54" height="8.85"/><rect class="cls-7" x="537.91" y="948.8" width="26.54" height="8.85"/><rect class="cls-7" x="288.02" y="712.13" width="8.85" height="26.54"/><rect class="cls-7" x="288.02" y="756.36" width="8.85" height="26.54"/><rect class="cls-7" x="288.02" y="667.89" width="8.85" height="26.54"/><rect class="cls-7" x="288.02" y="844.83" width="8.85" height="26.54"/><rect class="cls-7" x="288.02" y="800.59" width="8.85" height="26.54"/><rect class="cls-7" x="288.02" y="889.06" width="8.85" height="26.54"/><rect class="cls-7" x="288.02" y="623.66" width="8.85" height="26.54"/><rect class="cls-7" x="288.02" y="451.62" width="8.85" height="21.65"/><rect class="cls-7" x="506.5" y="63.64" width="26.54" height="8.85"/><rect class="cls-7" x="462.27" y="63.64" width="26.54" height="8.85"/><rect class="cls-7" x="418.04" y="63.64" width="26.54" height="8.85"/><rect class="cls-7" x="373.8" y="63.64" width="26.54" height="8.85"/><rect class="cls-7" x="288.02" y="535.19" width="8.85" height="26.54"/><rect class="cls-7" x="550.74" y="63.64" width="26.54" height="8.85"/><rect class="cls-7" x="288.02" y="579.43" width="8.85" height="26.54"/><rect class="cls-7" x="288.02" y="490.96" width="8.85" height="26.54"/><rect class="cls-7" x="913.89" y="673.58" width="8.85" height="26.54"/><rect class="cls-7" x="913.89" y="496.64" width="8.85" height="26.54"/><rect class="cls-7" x="913.89" y="363.94" width="8.85" height="26.54"/><rect class="cls-7" x="913.89" y="408.18" width="8.85" height="26.54"/><rect class="cls-7" x="913.89" y="629.34" width="8.85" height="26.54"/><rect class="cls-7" x="913.89" y="540.88" width="8.85" height="26.54"/><rect class="cls-7" x="913.89" y="585.11" width="8.85" height="26.54"/><rect class="cls-7" x="913.89" y="452.41" width="8.85" height="26.54"/><rect class="cls-7" x="913.92" y="98.54" width="8.85" height="26.54"/><polygon class="cls-7" points="904.6 63.64 904.6 72.49 913.93 72.49 913.93 80.85 922.78 80.85 922.78 63.64 904.6 63.64"/><rect class="cls-7" x="913.91" y="142.78" width="8.85" height="26.54"/><rect class="cls-7" x="913.89" y="319.71" width="8.85" height="26.54"/><rect class="cls-7" x="913.89" y="275.48" width="8.85" height="26.54"/><rect class="cls-7" x="913.9" y="187.01" width="8.85" height="26.54"/><rect class="cls-7" x="913.89" y="231.24" width="8.85" height="26.54"/><rect class="cls-7" x="913.89" y="806.28" width="8.85" height="26.54"/><rect class="cls-7" x="913.89" y="717.81" width="8.85" height="26.54"/><rect class="cls-7" x="771.9" y="63.64" width="26.54" height="8.85"/><rect class="cls-7" x="803.31" y="948.8" width="26.54" height="8.85"/><rect class="cls-7" x="714.84" y="948.8" width="26.54" height="8.85"/><rect class="cls-7" x="683.44" y="63.64" width="26.54" height="8.85"/><rect class="cls-7" x="816.14" y="63.64" width="26.54" height="8.85"/><rect class="cls-7" x="727.67" y="63.64" width="26.54" height="8.85"/><rect class="cls-7" x="759.07" y="948.8" width="26.54" height="8.85"/><rect class="cls-7" x="913.89" y="850.51" width="8.85" height="26.54"/><rect class="cls-7" x="670.61" y="948.8" width="26.54" height="8.85"/><rect class="cls-7" x="847.54" y="948.8" width="26.54" height="8.85"/><rect class="cls-7" x="913.89" y="762.04" width="8.85" height="26.54"/><rect class="cls-7" x="860.37" y="63.64" width="26.54" height="8.85"/><rect class="cls-7" x="913.89" y="894.74" width="8.85" height="26.54"/><polygon class="cls-7" points="913.89 948.8 891.77 948.8 891.77 957.65 922.74 957.65 922.74 938.98 913.89 938.98 913.89 948.8"/><path d="M867.25,828.29l-27.06-27a8.5,8.5,0,0,0-12,0l-27.06,27a9.18,9.18,0,0,0-1,1.2l-40.39-19.2a4.76,4.76,0,0,0-6.61,5.65l4.09,13.88H551.74a9.18,9.18,0,0,0-1.2-1.53l-27.06-27a8.5,8.5,0,0,0-12,0l-27.06,27a8.51,8.51,0,0,0,0,12l27.06,27a8.5,8.5,0,0,0,12,0l27.06-27a8.71,8.71,0,0,0,1.27-1.66H757.22l-4.09,13.89a4.76,4.76,0,0,0,6.61,5.65L800.06,839a8.47,8.47,0,0,0,1.05,1.29l27.06,27a8.5,8.5,0,0,0,12,0l27.06-27A8.51,8.51,0,0,0,867.25,828.29ZM517.47,860.87,490.9,834.31l26.57-26.57,22.08,22.08H519a2.68,2.68,0,0,0-2.68,2.67V836a2.68,2.68,0,0,0,2.68,2.68h20.72Zm316.71,0-26.57-26.56,26.57-26.57,26.57,26.57Z"/><path d="M867.25,721.69l-27.06-27.05a8.5,8.5,0,0,0-12,0l-27.06,27.05a9.1,9.1,0,0,0-1,1.19l-40.39-19.19a4.76,4.76,0,0,0-6.61,5.65l4.09,13.87H628.7a8.18,8.18,0,0,0-1.2-1.52l-27-27.05a8.51,8.51,0,0,0-12,0l-27,27.05a8.5,8.5,0,0,0,0,12l27,27.06a8.51,8.51,0,0,0,12,0l27-27.06a8,8,0,0,0,1.28-1.65H757.22l-4.09,13.88a4.76,4.76,0,0,0,6.61,5.66l40.32-19.17a8.4,8.4,0,0,0,1.05,1.28l27.06,27.06a8.5,8.5,0,0,0,12,0l27.06-27.06A8.5,8.5,0,0,0,867.25,721.69ZM594.44,754.27,567.87,727.7l26.57-26.56,22.07,22.07H595.92a2.68,2.68,0,0,0-2.68,2.68v3.49a2.68,2.68,0,0,0,2.68,2.68h20.72Zm239.74,0L807.61,727.7l26.57-26.56,26.57,26.56Z"/><path d="M867.25,615.09,840.19,588a8.5,8.5,0,0,0-12,0l-27.06,27.06a8.49,8.49,0,0,0-1,1.19l-40.39-19.2a4.76,4.76,0,0,0-6.61,5.66l4.09,13.87H710.53a8.18,8.18,0,0,0-1.2-1.52L682.28,588a8.51,8.51,0,0,0-12,0l-27,27.06a8.5,8.5,0,0,0,0,12l27,27.06a8.51,8.51,0,0,0,12,0l27.05-27.06a8,8,0,0,0,1.28-1.65h46.61l-4.09,13.88a4.76,4.76,0,0,0,6.61,5.65l40.32-19.17a8,8,0,0,0,1.05,1.29l27.06,27.06a8.5,8.5,0,0,0,12,0l27.06-27.06A8.5,8.5,0,0,0,867.25,615.09Zm-191,32.58L649.7,621.1l26.57-26.57,22.07,22.08H676.43a2.68,2.68,0,0,0-2.68,2.68v3.49a2.68,2.68,0,0,0,2.68,2.68h22.05Zm157.91,0L807.61,621.1l26.57-26.57,26.57,26.57Z"/><path class="cls-8" d="M847.6,186.66H661.36V.14H221.72v187H594.53V451.62H221.72V885.31H571.18s1.21-18.39,10.65-46.65h-30a8.71,8.71,0,0,1-1.27,1.66l-27.06,27a8.5,8.5,0,0,1-12,0l-27.06-27a8.51,8.51,0,0,1,0-12l27.06-27a8.5,8.5,0,0,1,12,0l27.06,27a9.18,9.18,0,0,1,1.2,1.53H585c10.12-27.31,27.58-62,57.6-97.76H628.78a8,8,0,0,1-1.28,1.65l-27,27.06a8.51,8.51,0,0,1-12,0l-27-27.06a8.5,8.5,0,0,1,0-12l27-27.05a8.51,8.51,0,0,1,12,0l27,27.05a8.18,8.18,0,0,1,1.2,1.52h21.52A393.79,393.79,0,0,1,691,683.85a525.59,525.59,0,0,0,59.67-58.39H710.61a8,8,0,0,1-1.28,1.65l-27.05,27.06a8.51,8.51,0,0,1-12,0l-27-27.06a8.5,8.5,0,0,1,0-12l27-27.06a8.51,8.51,0,0,1,12,0l27.05,27.06a8.18,8.18,0,0,1,1.2,1.52h46.69l-4.09-13.87a4.76,4.76,0,0,1,6.61-5.66l10.09,4.8C848.42,498.45,847.6,408,847.6,408Z"/><polygon class="cls-1" points="847.58 186.66 661.36 186.66 661.36 0 847.58 186.66"/></g></svg>